<?xml version="1.0" encoding="utf-8"?>
<!-- Generator: Adobe Illustrator 23.0.1, SVG Export Plug-In . SVG Version: 6.00 Build 0)  -->
<svg version="1.1" id="google_login" xmlns="http://www.w3.org/2000/svg" xmlns:xlink="http://www.w3.org/1999/xlink" x="0px"
	 y="0px" viewBox="0 0 42 42" style="enable-background:new 0 0 42 42;" xml:space="preserve">
<style type="text/css">
	.st0{fill:#4285F4;}
	.st1{fill:#34A853;}
	.st2{fill:#FBBC05;}
	.st3{fill:#EB4335;}
</style>
<path id="Path_4095" class="st0" d="M42,21.5c0-1.4-0.1-2.9-0.5-4.3H21.4V25h11.8c-0.5,2.8-2,5.2-4.4,6.8l0,0.3l6.4,4.8l0.4,0
	C39.7,33.2,42,27.9,42,21.5"/>
<path id="Path_4096" class="st1" d="M21.4,42c5.2,0.2,10.3-1.7,14.2-5.1l-6.8-5.1c-2.2,1.4-4.8,2.2-7.4,2.1
	c-5.5,0-10.4-3.5-12.2-8.7l-0.3,0l-6.6,5l-0.1,0.2C6,37.6,13.4,42,21.4,42"/>
<path id="Path_4097" class="st2" d="M9.2,25.2c-0.5-1.3-0.7-2.7-0.7-4.2c0-1.4,0.2-2.8,0.7-4.2l0-0.3l-6.7-5.1l-0.2,0.1
	c-3,5.9-3,12.9,0,18.9L9.2,25.2"/>
<path id="Path_4098" class="st3" d="M21.4,8.1c3.1-0.1,6,1.1,8.3,3.1l6-5.8c-3.9-3.6-9-5.5-14.3-5.5C13.4,0,6,4.4,2.3,11.6l6.9,5.3
	C11,11.6,15.9,8.1,21.4,8.1"/>
</svg>
