<?xml version="1.0" encoding="utf-8"?>
<!-- Generator: Adobe Illustrator 23.0.1, SVG Export Plug-In . SVG Version: 6.00 Build 0)  -->
<svg version="1.1" id="Layer_1" xmlns="http://www.w3.org/2000/svg" xmlns:xlink="http://www.w3.org/1999/xlink" x="0px" y="0px"
	 viewBox="0 0 12 12" style="enable-background:new 0 0 12 12;" xml:space="preserve">
<style type="text/css">
	.st0{fill:#FFFFFF;}
	.st1{fill:#656565;}
</style>
<g id="inspiration_comment" transform="translate(0 -21)">
	<path id="Path_4580" class="st0" d="M11.8,22v8.4c0,0.4-0.3,0.7-0.7,0.8H4.6l-2.1,1.5v-1.5H0.9c-0.4,0-0.7-0.4-0.7-0.8V22
		c0-0.4,0.3-0.7,0.7-0.8h10.1C11.5,21.3,11.8,21.6,11.8,22z"/>
	<circle id="Ellipse_390" class="st1" cx="6" cy="21.2" r="0.2"/>
	<path id="Path_4589" class="st1" d="M0.9,31.5h1.3v1.3c0,0.1,0,0.2,0.1,0.2c0.1,0,0.2,0,0.2,0l2-1.5h6.4c0.5,0,1-0.5,0.9-1V22
		c0-0.5-0.4-1-0.9-1h-4c-0.1,0-0.2,0.1-0.2,0.3c0,0.1,0.1,0.2,0.2,0.2h4c0.3,0,0.5,0.2,0.5,0.5v8.4c0,0.3-0.2,0.5-0.5,0.5H4.6
		c0,0-0.1,0-0.1,0l-1.7,1.3v-1.1c0-0.1-0.1-0.2-0.2-0.3H0.9c-0.3,0-0.5-0.2-0.5-0.5V22c0-0.3,0.2-0.5,0.5-0.5h4
		c0.1,0,0.2-0.1,0.2-0.3c0-0.1-0.1-0.2-0.2-0.2h-4c-0.5,0-1,0.5-0.9,1v8.4C0,31,0.4,31.4,0.9,31.5z"/>
	<path id="Path_4602" class="st1" d="M9.4,25.5C9.3,25.2,9.1,25,8.8,25H7l-0.6-1.7c-0.1-0.3-0.3-0.4-0.6-0.4l0,0
		c-0.3,0-0.5,0.2-0.6,0.4L4.8,25H3c-0.3,0-0.6,0.3-0.6,0.6c0,0.2,0.1,0.4,0.3,0.5l1.4,1l-0.5,1.7c-0.1,0.3,0,0.5,0.2,0.7
		c0.2,0.2,0.5,0.2,0.7,0l1.4-1l1.4,1c0.3,0.2,0.7,0.1,0.9-0.1c0.1-0.2,0.1-0.4,0.1-0.5l-0.5-1.7l1.4-1C9.4,26,9.5,25.7,9.4,25.5
		L9.4,25.5z"/>
</g>
</svg>
