<?xml version="1.0" encoding="utf-8"?>
<!-- Generator: Adobe Illustrator 23.0.1, SVG Export Plug-In . SVG Version: 6.00 Build 0)  -->
<svg version="1.1" id="Layer_1" xmlns="http://www.w3.org/2000/svg" xmlns:xlink="http://www.w3.org/1999/xlink" x="0px" y="0px"
	 viewBox="0 0 12 12" style="enable-background:new 0 0 12 12;" xml:space="preserve">
<style type="text/css">
	.st0{fill:#656565;}
</style>
<g id="inspired_fist" transform="translate(0 -12.206)">
	<path id="Path_4578" class="st0" d="M6,19.4c0,0.2-0.1,0.3-0.3,0.3c-0.2,0-0.3-0.1-0.3-0.3c0-0.2,0.1-0.3,0.3-0.3S6,19.3,6,19.4
		L6,19.4z"/>
	<path id="Path_4579" class="st0" d="M9.1,12.8c-0.2,0-0.5,0.1-0.7,0.2c-0.2-0.6-0.9-1-1.6-0.7c-0.2,0.1-0.4,0.2-0.5,0.3
		c-0.4-0.5-1.2-0.6-1.7-0.1c0,0-0.1,0.1-0.1,0.1c-0.4-0.5-1.2-0.6-1.7-0.1c-0.3,0.2-0.4,0.6-0.4,0.9v1.7c-0.4,0.3-0.6,0.7-0.6,1.2
		c0,1.6,0.8,3.2,2.1,4.2C4,20.7,4.2,21,4.2,21.3v2.6c0,0.2,0.1,0.3,0.3,0.3h4.9c0.2,0,0.3-0.1,0.3-0.3v-2.6c0.2-0.6,0.4-1.2,0.5-1.9
		c0.1-0.6,0.2-1.3,0.2-2V14C10.3,13.4,9.7,12.8,9.1,12.8C9.1,12.8,9.1,12.8,9.1,12.8z M9.1,13.4c0.3,0,0.6,0.3,0.6,0.6v2
		c0,0.3-0.3,0.6-0.6,0.6c-0.3,0-0.6-0.3-0.6-0.6v-2C8.5,13.7,8.7,13.4,9.1,13.4z M7.2,12.8c0.3,0,0.6,0.3,0.6,0.6v2
		c0,0.3-0.3,0.6-0.6,0.6c-0.3,0-0.6-0.3-0.6-0.6c0,0,0,0,0,0v-2C6.6,13.1,6.9,12.8,7.2,12.8z M5.4,12.8c0.3,0,0.6,0.3,0.6,0.6v1.4
		H4.8v-1.4C4.8,13.1,5,12.8,5.4,12.8z M3.6,12.8c0.3,0,0.6,0.3,0.6,0.6v1.4H3.2c-0.1,0-0.2,0-0.3,0v-1.4C2.9,13.1,3.2,12.8,3.6,12.8
		L3.6,12.8z M4.8,23.6v-1.4h4.3v1.4H4.8z M9.5,19.4c-0.1,0.6-0.3,1.3-0.5,1.9v0.3H4.8v-0.3c0-0.5-0.2-0.9-0.6-1.2
		c-1.2-0.9-1.8-2.2-1.8-3.7c0-0.5,0.4-0.9,0.9-0.9H6c-0.1,0.7-0.8,1.2-1.5,1.2H3.9c-0.2,0-0.3,0.1-0.3,0.3c0,0.2,0.1,0.3,0.3,0.3
		h0.3c0.6,0,1.1,0.4,1.2,1c0,0.2,0.2,0.3,0.4,0.2c0.2,0,0.3-0.2,0.2-0.3c-0.1-0.4-0.3-0.8-0.6-1.1c0.4-0.2,0.7-0.5,1-0.8
		c0.4,0.5,1.1,0.6,1.6,0.2c0.2,0.6,0.9,1,1.6,0.8c0.1,0,0.1-0.1,0.2-0.1v0.4C9.7,18.1,9.6,18.7,9.5,19.4L9.5,19.4z"/>
</g>
</svg>
