<?xml version="1.0" encoding="utf-8"?>
<!-- Generator: Adobe Illustrator 23.0.1, SVG Export Plug-In . SVG Version: 6.00 Build 0)  -->
<svg version="1.1" id="Layer_1" xmlns="http://www.w3.org/2000/svg" xmlns:xlink="http://www.w3.org/1999/xlink" x="0px" y="0px"
	 viewBox="0 0 12 12" style="enable-background:new 0 0 12 12;" xml:space="preserve">
<style type="text/css">
	.st0{fill:#656565;}
</style>
<g id="share_icon" transform="translate(-15.999 -16)">
	<path id="Path_4598" class="st0" d="M16,27.3c0,0.4,0.4,0.7,0.8,0.7h0.1c0.4,0,0.8-0.4,0.7-0.9c0-0.4-0.4-0.8-0.9-0.7
		C16.3,26.4,16,26.8,16,27.3L16,27.3z M16.5,26.9c0.1-0.1,0.2-0.1,0.3-0.1h0c0.2,0,0.4,0.2,0.4,0.4s-0.2,0.4-0.4,0.4
		s-0.4-0.2-0.4-0.4C16.4,27.1,16.4,27,16.5,26.9L16.5,26.9z"/>
	<circle id="Ellipse_392" class="st0" cx="17.8" cy="26.2" r="0.2"/>
	<circle id="Ellipse_393" class="st0" cx="18.4" cy="25.6" r="0.2"/>
	<path id="Path_4599" class="st0" d="M18.8,24.9c-0.1,0.1-0.1,0.2,0,0.3c0.1,0.1,0.2,0.1,0.3,0c0.1-0.1,0.1-0.2,0-0.3
		C19,24.8,18.9,24.8,18.8,24.9C18.8,24.9,18.8,24.9,18.8,24.9z"/>
	<path id="Path_4600" class="st0" d="M19.4,24.4c-0.1,0.1-0.1,0.2,0,0.3c0.1,0.1,0.2,0.1,0.3,0c0.1-0.1,0.1-0.2,0-0.3
		C19.6,24.3,19.4,24.3,19.4,24.4C19.4,24.4,19.4,24.4,19.4,24.4z"/>
	<path id="Path_4601" class="st0" d="M28,16.1C27.9,16,27.8,16,27.7,16l-10,3.4c-0.1,0-0.2,0.1-0.1,0.3c0,0,0,0.1,0.1,0.1l1.5,1.5
		l1,3.4c0,0.1,0.1,0.2,0.2,0.1c0,0,0.1,0,0.1-0.1l0,0l0.9-1.2l1.4,1.4c0,0,0.1,0.1,0.2,0.1h0c0.1,0,0.1,0,0.1-0.1l4.8-8.6
		C28,16.2,28,16.1,28,16.1z M26,17l-6.6,3.9l-1.2-1.2L26,17z M26,17.5l-5.5,4.8c0,0-0.1,0.1-0.1,0.1l-0.1,1.2l-0.7-2.4L26,17.5z
		 M20.7,23.9l0.1-1.1l0.4,0.4L20.7,23.9z M23,24.5l-2-2l6.2-5.3L23,24.5z"/>
</g>
</svg>
