<svg xmlns="http://www.w3.org/2000/svg" id="prefix__shield" width="14" height="16.593" viewBox="0 0 14 16.593">
    <path id="prefix__Path_4619" fill="#37b44e" d="M53.6 2.687L47.249.05a.648.648 0 0 0-.5 0L40.4 2.687a.648.648 0 0 0-.4.6v3.204a10.854 10.854 0 0 0 6.755 10.053.648.648 0 0 0 .49 0A10.854 10.854 0 0 0 54 6.491V3.285a.648.648 0 0 0-.4-.598zm-.9 3.8a9.56 9.56 0 0 1-5.7 8.754 9.561 9.561 0 0 1-5.7-8.749V3.718L47 1.35l5.7 2.368zm-6.42 2.185l2.789-2.782a.648.648 0 1 1 .917.917l-3.244 3.244a.648.648 0 0 1-.917 0L44.014 8.24a.648.648 0 0 1 .917-.917z" data-name="Path 4619" transform="translate(-40)"/>
</svg>
