<svg xmlns="http://www.w3.org/2000/svg" width="17.996" height="17.996" viewBox="0 0 17.996 17.996">
    <path d="M15.934 0H2.062A2.064 2.064 0 0 0 0 2.062v10.123a2.064 2.064 0 0 0 2.062 2.062H3v3.187a.562.562 0 0 0 .96.4l3.584-3.584h8.391A2.064 2.064 0 0 0 18 12.185V2.062A2.064 2.064 0 0 0 15.934 0zm-5.406 10.416a.837.837 0 0 1-.84.832h-1.38a.866.866 0 0 1-.84-.967v-.4h3.059zm.607-2.22a1.609 1.609 0 0 0-.585.93h-3.1a1.41 1.41 0 0 0-.547-.892 3.315 3.315 0 0 1-1.282-2.7A3.391 3.391 0 0 1 8.946 2.25a3.348 3.348 0 0 1 2.189 5.95z" data-name="tips (1)"/>
</svg>
